# xmcd
#
# Track frame offsets:
#	150
#	20702
#	40130
#	62102
#	77702
#	92320
#	106957
#	127292
#	146167
#	165305
#
# Disc length: 2452
#
# Revision: 1
# Processed by: cddbd v1.5.1PL0 Copyright (c) Steve Scherf et al.
# Submitted via: SuperSonic v3.0
# Normalized: r0:TDELIM( - )
#
DISCID=8209920a
DTITLE=Various Women - Women in Blues - A Celebration of Blues
DYEAR=1900
DGENRE=
TTITLE0=Koko Taylor - 63 Year Old Mama
TTITLE1=Rita Chiarelli - Lawless
TTITLE2=Maria Muldaur - Everybody Cryin' Merch
TTITLE3=Ellen McIlwaine - Born Under A Bad Sign
TTITLE4=Valerie Wellington - Fool For You
TTITLE5=Rory Block - Come On In My Kitchen
TTITLE6=Barbara Lynn - Sweet Sixteen
TTITLE7=Sippie Wallace - Suitcase Blues
TTITLE8=Saffire - Ain't Nobody's Business
TTITLE9=Katie Webster - Too Much Sugar For A Dime
EXTD=
EXTT0=
EXTT1=
EXTT2=
EXTT3=
EXTT4=
EXTT5=
EXTT6=
EXTT7=
EXTT8=
EXTT9=
PLAYORDER=
